Coordinates
version=1
nRows=8
nColumns=46
inDegrees=yes

Units are S.I. units (second, meters, Newtons, ...)
Angles are in degrees.

endheader
time	pelvis_tilt	pelvis_list	pelvis_rotation	pelvis_tx	pelvis_ty	pelvis_tz	bb_angle	bb_tx	bb_ty	bb_tz	hip_flexion_r	hip_adduction_r	hip_rotation_r	knee_angle_r	knee_angle_r_beta	ankle_angle_r	subtalar_angle_r	mtp_angle_r	crank_angle_r	hip_flexion_l	hip_adduction_l	hip_rotation_l	knee_angle_l	knee_angle_l_beta	ankle_angle_l	subtalar_angle_l	mtp_angle_l	crank_angle_l	lumbar_extension	lumbar_bending	lumbar_rotation	arm_flex_r	arm_add_r	arm_rot_r	elbow_flex_r	pro_sup_r	wrist_flex_r	wrist_dev_r	arm_flex_l	arm_add_l	arm_rot_l	elbow_flex_l	pro_sup_l	wrist_flex_l	wrist_dev_l
      2.50000000	    -21.41245133	     13.47802663	     13.68574810	      0.14841640	      1.15657311	     -0.21278483	      0.00000000	      0.50000000	      0.00000000	      0.25000000	     50.56740306	    -21.29510308	      5.09990790	     55.76281545	      0.97324473	    -18.54740423	    -12.61891664	      0.00000000	      0.00000000	     71.99347188	      9.56614540	     -8.28502800	     65.16776077	      1.13739199	     23.74896371	     -0.46127019	      0.00000000	      0.00000000	    -58.67847190	     -3.69575976	    -16.29850613	     89.27793172	    -12.17832507	     33.74626045	     37.61270008	     37.53110380	      0.00000000	      0.00000000	     89.76687734	     -7.59723253	     28.11258974	     49.48712986	     24.14243714	      0.00000000	      0.00000000
      2.50500000	    -21.19894882	     13.23913261	     13.40547612	      0.14867168	      1.15529040	     -0.21207816	      0.00000000	      0.50000000	      0.00000000	      0.25000000	     51.14176813	    -20.96820826	      5.05164152	     57.63865865	      1.00598437	    -17.89129642	    -12.86432036	      0.00000000	      0.00000000	     71.27684917	      9.37565347	     -7.96333345	     63.82354273	      1.11393096	     23.30163789	     -0.34737548	      0.00000000	      0.00000000	    -58.78624411	     -3.69472645	    -15.95145206	     89.30957587	    -12.21999617	     33.76257158	     37.74772035	     37.54869153	      0.00000000	      0.00000000	     89.76438109	     -7.64455439	     28.05346947	     49.57909596	     24.15053213	      0.00000000	      0.00000000
      2.51000000	    -21.13611523	     13.38634309	     13.21237180	      0.14917304	      1.15402935	     -0.21173615	      0.00000000	      0.50000000	      0.00000000	      0.25000000	     51.95164267	    -21.09028549	      5.27542248	     59.67002308	      1.04143837	    -16.49459578	    -12.20568836	      0.00000000	      0.00000000	     70.57017681	      9.52004682	     -7.92773385	     62.31652399	      1.08762852	     22.52739290	     -0.83560183	      0.00000000	      0.00000000	    -58.97681525	     -4.01902159	    -15.84927216	     89.25488297	    -12.84003901	     33.65030711	     38.46026331	     37.63246459	      0.00000000	      0.00000000	     89.76110370	     -7.40158222	     27.96116731	     49.89873294	     24.17880605	      0.00000000	      0.00000000
      2.51500000	    -20.91806834	     13.09433095	     12.87576052	      0.14978248	      1.15294824	     -0.21127755	      0.00000000	      0.50000000	      0.00000000	      0.25000000	     52.43703402	    -20.65718366	      5.28023852	     61.43779419	      1.07229179	    -15.81409102	    -12.46640330	      0.00000000	      0.00000000	     69.82184234	      9.30316014	     -7.53016594	     60.99616054	      1.06458383	     21.98656128	     -0.76609037	      0.00000000	      0.00000000	    -59.10639737	     -3.99518222	    -15.40490158	     89.25737485	    -12.85328199	     33.66745489	     38.57445469	     37.65182708	      0.00000000	      0.00000000	     89.75856717	     -7.45656889	     27.87562495	     49.98898051	     24.18849410	      0.00000000	      0.00000000
      2.52000000	    -20.76565603	     13.23602510	     12.59983935	      0.15064461	      1.15205717	     -0.21115525	      0.00000000	      0.50000000	      0.00000000	      0.25000000	     53.10937420	    -20.74509957	      5.51406934	     63.36029680	      1.10584579	    -14.44264217	    -11.79361639	      0.00000000	      0.00000000	     68.96746068	      9.45356512	     -7.39688461	     59.46497490	      1.03785960	     21.00705721	     -1.38019013	      0.00000000	      0.00000000	    -59.38506113	     -4.26478185	    -15.20252205	     89.18759019	    -13.43383301	     33.63350466	     39.23347151	     37.76528791	      0.00000000	      0.00000000	     89.75450384	     -7.19330058	     27.72371129	     50.32634581	     24.23412637	      0.00000000	      0.00000000
      2.52500000	    -20.58163604	     12.99621661	     12.18178180	      0.15163085	      1.15123784	     -0.21071832	      0.00000000	      0.50000000	      0.00000000	      0.25000000	     53.63846709	    -20.31378977	      5.55230954	     65.09052261	      1.13604393	    -13.58394441	    -12.04401297	      0.00000000	      0.00000000	     68.17050854	      9.21851004	     -6.98632336	     58.09171200	      1.01389164	     20.21247540	     -1.36449179	      0.00000000	      0.00000000	    -59.54161435	     -4.34609836	    -14.77321349	     89.18171331	    -13.50401732	     33.64755062	     39.44241923	     37.80812931	      0.00000000	      0.00000000	     89.75090292	     -7.19499438	     27.60720942	     50.42019767	     24.24643221	      0.00000000	      0.00000000
      2.53000000	    -20.38418954	     12.93064891	     11.75048205	      0.15267386	      1.15091115	     -0.21044739	      0.00000000	      0.50000000	      0.00000000	      0.25000000	     54.12290986	    -19.99085589	      5.80579094	     66.76677576	      1.16530007	    -12.58272870	    -11.71587153	      0.00000000	      0.00000000	     67.24169720	      9.14241830	     -6.64771933	     56.54671996	      0.98692644	     19.12290469	     -1.86900072	      0.00000000	      0.00000000	    -59.84539305	     -4.55690625	    -14.28761654	     89.09262006	    -14.14994399	     33.60907240	     40.35484535	     38.00628080	      0.00000000	      0.00000000	     89.74665618	     -6.80952674	     27.23225522	     50.66062288	     24.28588197	      0.00000000	      0.00000000
      2.53500000	    -20.25807503	     12.71226740	     11.25822513	      0.15425243	      1.15029651	     -0.21058831	      0.00000000	      0.50000000	      0.00000000	      0.25000000	     54.73010791	    -19.63765154	      5.89811579	     68.44971399	      1.19467288	    -11.69353846	    -11.36144505	      0.00000000	      0.00000000	     66.42837018	      8.93031518	     -6.21981354	     55.16324359	      0.96278023	     18.19631194	     -2.08847528	      0.00000000	      0.00000000	    -59.97585614	     -4.69882286	    -13.73412336	     89.02833006	    -14.55766385	     33.66795899	     40.87395796	     38.16097039	      0.00000000	      0.00000000	     89.73645040	     -6.58325214	     27.03708051	     50.71501456	     24.31663647	      0.00000000	      0.00000000
